<svg width="240" height="40" viewBox="0 0 240 40" fill="none" xmlns="http://www.w3.org/2000/svg">
<g clip-path="url(#clip0_12833_265)">
<path d="M52.2453 26.6251C52.2209 19.7395 47.1065 14.0831 40.5518 13.3749H52.2483C52.2483 5.98705 46.3925 0 39.1664 0V12.2955C38.6263 5.41299 32.9962 0 26.1272 0C19.2155 0 13.561 5.47851 13.0819 12.4202V0C5.88335 0 0.0427215 5.94649 0 13.3001C0 13.3001 0 13.325 0 13.3375C0 13.35 0 13.3625 0 13.3749C0.0366184 20.351 5.29746 26.0572 11.9834 26.6251H0C0 34.0129 5.85589 40 13.0819 40V27.5798C13.561 34.5215 19.2155 40 26.1272 40C33.0389 40 38.6263 34.587 39.1634 27.7045V40C46.3711 40 52.2178 34.0379 52.2453 26.675C52.2453 26.675 52.2453 26.6594 52.2453 26.65C52.2453 26.6407 52.2453 26.6344 52.2453 26.6251ZM39.1634 13.3749V25.5955C38.6629 19.1841 33.7408 14.0457 27.5126 13.3749H39.1634ZM13.0819 26.6251V14.2547C13.5366 20.8252 18.6266 26.0822 25.0317 26.6251H13.0819Z" fill="#FF0000"/>
<path d="M78.5861 17.6212L77.3624 17.5308C72.1687 17.1345 71.0061 16.6759 71.0061 15.0598C71.0061 13.6559 72.2908 12.9539 76.5874 12.9539C81.125 12.9539 83.4228 13.7183 83.4228 16.0051H89.5716C89.3611 11.0913 85.0035 8.52991 76.7369 8.52991C69.3339 8.52991 64.8573 10.6358 64.8573 15.0317C64.8573 19.4277 68.2292 21.5929 76.4378 22.0827L77.5425 22.1451C83.1848 22.5101 84.3199 22.847 84.3199 24.616C84.3199 26.2945 82.9162 27.0558 77.8721 27.0558C72.8279 27.0558 70.588 25.8952 70.588 23.6364H64.4087C64.6467 29.4362 69.4224 31.4798 78.049 31.4798C85.8091 31.4798 90.4657 29.7701 90.4657 24.4007C90.4657 19.0314 85.9586 18.2047 78.5861 17.6244V17.6212Z" fill="white"/>
<path d="M107.478 8.52661C98.5523 8.52661 92.8215 13.013 92.8215 19.9703C92.8215 26.9277 98.5523 31.4765 107.478 31.4765C116.404 31.4765 122.165 26.9277 122.165 19.9703C122.165 13.013 116.434 8.52661 107.478 8.52661ZM107.478 26.3474C102.284 26.3474 99.0009 23.7828 99.0009 19.9703C99.0009 16.1578 102.254 13.6214 107.478 13.6214C112.702 13.6214 115.986 16.1859 115.986 19.9703C115.986 23.7548 112.733 26.3474 107.478 26.3474Z" fill="white"/>
<path d="M141.652 9.04449H125.415V30.8649H131.356V25.1899H141.655C146.938 25.1899 150.193 22.1386 150.193 17.1031C150.193 12.0677 146.941 9.04761 141.655 9.04761L141.652 9.04449ZM140.279 20.092H131.353V14.1705H140.279C142.696 14.1705 144.042 14.8724 144.042 17.1C144.042 19.3276 142.699 20.092 140.279 20.092Z" fill="white"/>
<path d="M160.007 9.04449L148.753 30.8649H155.082L157.23 26.469H170.303L172.451 30.8649H178.78L167.556 9.04449H160.004H160.007ZM159.381 22.0762L163.77 13.1035L168.158 22.0762H159.381Z" fill="white"/>
<path d="M207.077 15.5744C207.077 11.3002 204.27 9.04449 198.481 9.04449H181.466V30.8649H187.407V24.0605H198.481C200.422 24.0605 201.078 24.7313 201.078 26.7155V30.8649H207.019V25.739C207.019 23.1152 205.289 21.5271 202.6 21.3743C205.496 20.5194 207.077 18.5664 207.077 15.5744ZM197.108 19.1747H187.407V13.9271H197.108C199.467 13.9271 200.898 14.445 200.898 16.5197C200.898 18.5945 199.464 19.1747 197.108 19.1747Z" fill="white"/>
<path d="M228.777 9.04449H221.224L209.97 30.8649H216.299L218.447 26.469H231.52L233.668 30.8649H239.997L228.774 9.04449H228.777ZM220.598 22.0762L224.987 13.1035L229.375 22.0762H220.598Z" fill="white"/>
</g>
<defs>
<clipPath id="clip0_12833_265">
<rect width="240" height="40" fill="white"/>
</clipPath>
</defs>
</svg>
