<svg xmlns="http://www.w3.org/2000/svg" viewBox="0 0 77.64 22.15">
  <path
    d="M16.51 14.13c4.16-2.02 9.29-3.49 15.81.82 2.25 1.49 4.31 2.44 6.5 2.37 2.19.06 4.25-.88 6.5-2.37 6.51-4.31 11.65-2.83 15.81-.83.52.25 1.14.04 1.39-.48s.03-1.14-.49-1.39c-2.6-1.26-5.77-2.39-9.45-2.11-.94-.11-6.71.79-14.44-3.6-1.36-.77-6.05-3.85-6.05-3.85C29.23 1.01 26 .01 22.69 0c-1.42 0-2.82.15-4.12.49l-.58.15c-.58.15-1.04.66-1.04 1.26 0 .78.68 1.38 1.44 1.28l.32-.04c2.79-.35 6-.68 11.45 2.1 1.68.86 2.15 1.5 2.37 1.76.82.91-.22 2.4-1.42.52-.4-.62-1.49-1.54-3.54-1.98-.59.78-1.56 2.42-1.56 4.71-.26-.04-.52-.07-.77-.09.02-2.23.86-3.88 1.52-4.81-1.05-.19-2.14-.19-3.1.22-1.23.52-1.9 1.76-1.86 3.09.02.65.4 1.21.94 1.49-2.71.21-5.09 1.12-7.13 2.11-.52.25-.74.87-.49 1.39s.87.74 1.39.49Z"/>
  <path
    d="M77.54 18.59a1.04 1.04 0 0 0-1.39-.49c-4.16 2.02-9.29 3.49-15.81-.82-2.25-1.49-4.31-2.44-6.5-2.37-2.19-.06-4.25.89-6.5 2.37-.8.53-1.57.96-2.33 1.33-1.77.77-3.71 1.37-5.85 1.45h-.68c-2.14-.08-4.08-.68-5.85-1.45-.76-.36-1.53-.8-2.33-1.33-2.25-1.49-4.31-2.44-6.5-2.37-2.19-.06-4.25.89-6.5 2.37-6.51 4.31-11.65 2.83-15.81.83-.52-.25-1.14-.04-1.39.48s-.03 1.14.49 1.39c3.36 1.62 7.65 3.05 12.79 1.48 1.61-.49 3.3-1.27 5.07-2.44 2.15-1.42 3.78-2.09 5.35-2.04 1.57-.05 3.2.62 5.35 2.04.38.25.76.48 1.13.69.62.36 1.23.67 1.83.94.71.32 1.42.6 2.1.81 1.62.5 3.15.69 4.6.68 1.45.01 2.98-.18 4.6-.68q1.035-.315 2.1-.81c.6-.27 1.21-.58 1.84-.94.37-.22.75-.44 1.13-.69 2.15-1.42 3.78-2.09 5.35-2.04 1.57-.05 3.2.62 5.35 2.04 1.77 1.17 3.46 1.95 5.07 2.44 5.14 1.57 9.43.14 12.79-1.48.52-.25.74-.87.49-1.39Z"/>
</svg>
