<svg width="30" height="30" viewBox="0 0 30 30" fill="none" xmlns="http://www.w3.org/2000/svg">
<path d="M14.6437 1.83046C11.9745 1.83349 9.41558 2.89514 7.52821 4.7825C5.64085 6.66987 4.5792 9.22881 4.57617 11.8979C4.57617 20.5125 13.7284 27.0186 14.1185 27.2909C14.2724 27.3987 14.4558 27.4565 14.6437 27.4565C14.8315 27.4565 15.0149 27.3987 15.1688 27.2909C15.5589 27.0186 24.7111 20.5125 24.7111 11.8979C24.7081 9.22881 23.6465 6.66987 21.7591 4.7825C19.8717 2.89514 17.3128 1.83349 14.6437 1.83046ZM14.6437 8.23704C15.3677 8.23704 16.0755 8.45175 16.6775 8.85402C17.2796 9.25628 17.7488 9.82804 18.0259 10.497C18.303 11.1659 18.3755 11.902 18.2342 12.6122C18.093 13.3223 17.7443 13.9746 17.2323 14.4866C16.7203 14.9986 16.068 15.3473 15.3579 15.4885C14.6477 15.6298 13.9116 15.5573 13.2427 15.2802C12.5737 15.0031 12.002 14.5339 11.5997 13.9318C11.1975 13.3298 10.9828 12.622 10.9828 11.8979C10.9828 10.927 11.3685 9.99585 12.055 9.3093C12.7416 8.62274 13.6727 8.23704 14.6437 8.23704Z" fill="#FF0000"/>
</svg>
